<svg width="41" height="41" viewBox="0 0 41 41" fill="none" xmlns="http://www.w3.org/2000/svg">
<path d="M36.2852 6.32709C35.3329 5.37484 34.2023 4.61957 32.9581 4.10445C31.7138 3.58932 30.3802 3.32445 29.0335 3.32495C27.6868 3.32546 26.3534 3.59134 25.1095 4.10739C23.8656 4.62345 22.7356 5.37957 21.7841 6.33254L20.542 7.58977L19.3102 6.33526L19.3022 6.32726C18.3504 5.37545 17.2204 4.62043 15.9769 4.10532C14.7333 3.5902 13.4004 3.32507 12.0543 3.32507C10.7083 3.32507 9.3754 3.5902 8.13181 4.10532C6.88821 4.62043 5.75826 5.37545 4.80646 6.32726L4.25312 6.88059C2.33088 8.80284 1.25098 11.41 1.25098 14.1284C1.25098 16.8469 2.33088 19.454 4.25312 21.3763L18.8572 35.9802L20.5064 37.7081L20.5457 37.6687L20.5884 37.7114L22.1336 36.0811L36.8385 21.376C38.7579 19.4522 39.8358 16.8457 39.8358 14.1282C39.8358 11.4107 38.7579 8.80413 36.8385 6.88035L36.2852 6.32709ZM35.0262 19.5641L20.5457 34.0449L6.06497 19.5641C4.62329 18.1224 3.81337 16.1671 3.81337 14.1282C3.81337 12.0894 4.62329 10.134 6.06497 8.69236L6.61839 8.13902C8.05936 6.69806 10.0135 5.88819 12.0514 5.88743C14.0892 5.88666 16.044 6.69506 17.486 8.13494L20.5364 11.2409L23.6014 8.13902C24.3152 7.42517 25.1627 6.8589 26.0954 6.47257C27.0281 6.08623 28.0277 5.88739 29.0373 5.88739C30.0468 5.88739 31.0465 6.08623 31.9792 6.47257C32.9118 6.8589 33.7593 7.42517 34.4732 8.13902L35.0265 8.69228C36.466 10.1352 37.2744 12.0901 37.2743 14.1283C37.2743 16.1664 36.4658 18.1213 35.0262 19.5641Z" fill="white"/>
<path d="M35.0262 19.5641L20.5457 34.0449L6.06497 19.5641C4.62329 18.1224 3.81337 16.1671 3.81337 14.1282C3.81337 12.0894 4.62329 10.134 6.06497 8.69236L6.61839 8.13902C8.05936 6.69806 10.0135 5.88819 12.0514 5.88743C14.0892 5.88666 16.044 6.69506 17.486 8.13494L20.5364 11.2409L23.6014 8.13902C24.3152 7.42517 25.1627 6.8589 26.0954 6.47257C27.0281 6.08623 28.0277 5.88739 29.0373 5.88739C30.0468 5.88739 31.0465 6.08623 31.9792 6.47257C32.9118 6.8589 33.7593 7.42517 34.4732 8.13902L35.0265 8.69228C36.466 10.1352 37.2744 12.0901 37.2743 14.1283C37.2743 16.1664 36.4658 18.1213 35.0262 19.5641Z" fill="white"/>
</svg>
