<svg width="38" height="38" viewBox="0 0 38 38" fill="none" xmlns="http://www.w3.org/2000/svg">
<path d="M33.6299 5.86402C32.7473 4.98144 31.6995 4.28143 30.5462 3.804C29.393 3.32657 28.157 3.08107 26.9088 3.08154C25.6607 3.08201 24.4248 3.32844 23.272 3.80673C22.1191 4.28503 21.0718 4.98582 20.1898 5.86906L19.0386 7.0343L17.897 5.87159L17.8896 5.86417C17.0074 4.982 15.9601 4.28223 14.8076 3.80481C13.655 3.32738 12.4196 3.08166 11.172 3.08166C9.92448 3.08166 8.68913 3.32738 7.53653 3.80481C6.38394 4.28223 5.33666 4.982 4.4545 5.86417L3.94165 6.37702C2.16007 8.15861 1.15918 10.575 1.15918 13.0945C1.15918 15.6141 2.16007 18.0304 3.94165 19.812L17.4771 33.3474L19.0057 34.9489L19.0421 34.9123L19.0817 34.9519L20.5138 33.4409L34.1427 19.8118C35.9217 18.0288 36.9207 15.613 36.9207 13.0943C36.9207 10.5756 35.9217 8.1598 34.1427 6.37679L33.6299 5.86402ZM32.463 18.1325L19.0421 31.5536L5.62093 18.1325C4.28474 16.7963 3.53408 14.984 3.53408 13.0943C3.53408 11.2047 4.28474 9.39241 5.62093 8.05622L6.13385 7.54337C7.46939 6.20784 9.28056 5.45723 11.1693 5.45652C13.058 5.45581 14.8698 6.20505 16.2063 7.53958L19.0335 10.4183L21.8742 7.54337C22.5358 6.88174 23.3212 6.35691 24.1857 5.99885C25.0501 5.64078 25.9766 5.45648 26.9123 5.45648C27.848 5.45648 28.7745 5.64078 29.6389 5.99885C30.5034 6.35691 31.2889 6.88174 31.9505 7.54337L32.4633 8.05614C33.7975 9.39344 34.5467 11.2053 34.5467 13.0944C34.5466 14.9834 33.7973 16.7952 32.463 18.1325Z" fill="#00FFE0"/>
</svg>
