<svg width="45" height="45" viewBox="0 0 45 45" fill="none" xmlns="http://www.w3.org/2000/svg">
            <path fill-rule="evenodd" clip-rule="evenodd" d="M22.5 7.5C19.8764 7.49952 17.2986 8.18717 15.0239 9.4943C12.7491 10.8014 10.857 12.6823 9.5363 14.9493C8.21564 17.2162 7.51266 19.7899 7.49752 22.4134C7.48238 25.037 8.15561 27.6186 9.45002 29.9006C10.3249 28.7636 11.4496 27.843 12.7371 27.21C14.0245 26.577 15.4403 26.2485 16.875 26.25H28.125C29.5597 26.2485 30.9755 26.577 32.263 27.21C33.5505 27.843 34.6751 28.7636 35.55 29.9006C36.8444 27.6186 37.5177 25.037 37.5025 22.4134C37.4874 19.7899 36.7844 17.2162 35.4637 14.9493C34.1431 12.6823 32.2509 10.8014 29.9762 9.4943C27.7014 8.18717 25.1236 7.49952 22.5 7.5ZM37.3932 33.8925C39.9001 30.6243 41.2561 26.6189 41.25 22.5C41.25 12.1444 32.8556 3.75 22.5 3.75C12.1444 3.75 3.75002 12.1444 3.75002 22.5C3.74383 26.619 5.09984 30.6244 7.6069 33.8925L7.59752 33.9263L8.26315 34.7006C10.0217 36.7566 12.2051 38.4068 14.663 39.5375C17.1208 40.6681 19.7946 41.2524 22.5 41.25C26.3013 41.257 30.0139 40.1023 33.1406 37.9406C34.4736 37.0196 35.6824 35.9307 36.7369 34.7006L37.4025 33.9263L37.3932 33.8925ZM22.5 11.25C21.0082 11.25 19.5774 11.8426 18.5225 12.8975C17.4677 13.9524 16.875 15.3832 16.875 16.875C16.875 18.3668 17.4677 19.7976 18.5225 20.8525C19.5774 21.9074 21.0082 22.5 22.5 22.5C23.9919 22.5 25.4226 21.9074 26.4775 20.8525C27.5324 19.7976 28.125 18.3668 28.125 16.875C28.125 15.3832 27.5324 13.9524 26.4775 12.8975C25.4226 11.8426 23.9919 11.25 22.5 11.25Z" fill="white"/>
          </svg>
