<svg width="30" height="30" viewBox="0 0 30 30" fill="none" xmlns="http://www.w3.org/2000/svg">
<path d="M27.156 29.0954L27.1571 29.0965C27.6931 29.6345 28.5632 29.6345 29.0991 29.0965L29.0993 29.0963C29.6336 28.5594 29.6334 27.6904 29.0997 27.1533C29.0997 27.1532 29.0996 27.1532 29.0996 27.1531L20.9395 18.9132C22.4203 16.983 23.3024 14.5654 23.3024 11.941C23.3024 5.62406 18.1996 0.5 11.9012 0.5C5.60283 0.5 0.5 5.62406 0.5 11.941C0.5 18.2579 5.60283 23.3819 11.9012 23.3819C14.5938 23.3819 17.0675 22.4426 19.0176 20.876L27.156 29.0954ZM11.9012 20.6458C7.11393 20.6458 3.2298 16.7501 3.2298 11.941C3.2298 7.13177 7.11393 3.23611 11.9012 3.23611C16.6885 3.23611 20.5726 7.13177 20.5726 11.941C20.5726 16.7501 16.6885 20.6458 11.9012 20.6458Z" fill="white" stroke="white"/>
</svg>
